<?xml version="1.0" encoding="utf-8"?>
<svg xmlns="http://www.w3.org/2000/svg" xmlns:xlink="http://www.w3.org/1999/xlink" style="margin: auto; background: none; display: block; shape-rendering: auto;" width="197px" height="197px" viewBox="0 0 100 100" preserveAspectRatio="xMidYMid">
<g transform="translate(50 50)">
<g>
<animateTransform attributeName="transform" type="rotate" values="0;40" keyTimes="0;1" dur="3.3333333333333335s" repeatCount="indefinite"></animateTransform><path d="M29.58039891549808 -5 L39.58039891549808 -5 L39.58039891549808 5 L29.58039891549808 5 A30 30 0 0 1 25.873838262892644 15.183691696872422 L25.873838262892644 15.183691696872422 L33.53428269408242 21.611567793737816 L27.106406597217035 29.272012224927593 L19.445962166027254 22.8441361280622 A30 30 0 0 1 10.060621131398126 28.26276530084177 L10.060621131398126 28.26276530084177 L11.79710290806743 38.11084283096385 L1.9490253779453517 39.847324607633155 L0.21254360127604763 29.999247077511072 A30 30 0 0 1 -10.46007243882684 28.117376914898998 L-10.46007243882684 28.117376914898998 L-15.460072438826838 36.77763095274339 L-24.120326476671224 31.777630952743387 L-19.120326476671227 23.117376914899 A30 30 0 0 1 -26.086381864168686 14.815555380638655 L-26.086381864168686 14.815555380638655 L-35.48330807202777 18.235756813895343 L-38.90350950528446 8.838830606036261 L-29.506583297425376 5.418629172779573 A30 30 0 0 1 -29.50658329742538 -5.418629172779566 L-29.50658329742538 -5.418629172779566 L-38.90350950528446 -8.838830606036254 L-35.483308072027775 -18.235756813895335 L-26.08638186416869 -14.81555538063865 A30 30 0 0 1 -19.120326476671252 -23.11737691489898 L-19.120326476671252 -23.11737691489898 L-24.120326476671256 -31.777630952743365 L-15.460072438826852 -36.77763095274338 L-10.460072438826849 -28.117376914898998 A30 30 0 0 1 0.21254360127602026 -29.999247077511072 L0.21254360127602026 -29.999247077511072 L1.94902537794532 -39.847324607633155 L11.797102908067425 -38.110842830963854 L10.060621131398126 -28.26276530084177 A30 30 0 0 1 19.445962166027236 -22.844136128062214 L19.445962166027236 -22.844136128062214 L27.106406597217017 -29.27201222492761 L33.53428269408243 -21.611567793737816 L25.873838262892647 -15.183691696872419 A30 30 0 0 1 29.580398915498076 -5.0000000000000195 M0 -19A19 19 0 1 0 0 19 A19 19 0 1 0 0 -19" fill="#ffffff"></path></g></g>
<!-- [ldio] generated by https://loading.io/ --></svg>